<?xml version="1.0" encoding="UTF-8"?>
<svg xmlns="http://www.w3.org/2000/svg" width="31.69mm" height="50.365mm" version="1.1" viewBox="0 0 31.69 50.365"><g transform="translate(-109.91 -107.55)"><path d="m132.16 108.94-0.29677 11.359c-3.2632 1.5331-8.0754 5.1851-10.846 13.098l-11.106 0.8718c6.3918 2.6149 9.45 5.607 13.497 10.622 5.08 6.6266 14.454 3.8489 16.369 2.2503l-1e-5 -28.996c-4.7346-0.99291-5.4498-5.1063-7.586-9.3882z" stroke-linecap="square" stroke-linejoin="round" stroke-width=".5"/><g transform="rotate(-49.376 123.41 53.908)"><path d="m68.809 116.77c1.378-1.6276 3.0393-1.4434 4.5385-0.0492 0.03952 0.26709 0.13353 0.54409-0.25539 0.73326-1.7724-0.40126-1.4993 0.83148-1.5527 2.0911-0.27255 0.27382-0.54969 0.2823-0.83146 0.0237-0.03952-1.234 0.23183-2.3592-1.697-2.002-0.20376-0.0836-0.30118-0.30911-0.202-0.79673z" fill="#fff" stroke-linecap="square" stroke-linejoin="round" stroke-width=".5"/><g transform="matrix(.87929 .21896 -.21926 .87959 81.196 31.766)" stroke-width="1.1034"><g transform="rotate(-13.594 -77.289 193.84)" fill-rule="evenodd" stroke="#000" stroke-linecap="round" stroke-linejoin="round" stroke-width=".55168"><path transform="rotate(-40.832 47.762 100.66)" d="m17.036 93.403-6.1681-2.3498"/><path transform="translate(2.6435 21.515)" d="m17.036 93.403-6.1681-2.3498"/><path transform="rotate(-19.266 82.607 96.345)" d="m17.036 93.403-6.1681-2.3498"/></g></g><g transform="matrix(.85139 .015096 -.0153 .85172 -2.6102 32.027)" stroke-width="1.1741"><g transform="matrix(1.2141 0 0 1.2141 -4.9209 -30.993)" stroke-linecap="square" stroke-linejoin="round"><ellipse transform="scale(1,-1)" cx="70.713" cy="-102.44" rx="4.9198" ry="4.6217" fill="#fff" stroke-width=".48355"/><circle cx="70.619" cy="103.12" r="3.7652" stroke-width=".48355"/></g><circle cx="80.911" cy="91.024" r="1.0196" fill="#fff" fill-rule="evenodd"/><g transform="translate(14.613)"><g transform="matrix(1.2141 0 0 1.2141 -4.9209 -30.993)" stroke-linecap="square" stroke-linejoin="round"><path transform="scale(1,-1)" d="m75.183-100.45c-0.79013 1.5601-2.5075 2.6388-4.4691 2.6388-2.7171 0-4.9198-2.0692-4.9198-4.6217 0-1.7552 1.0262-3.3048 2.5604-4.0872z" fill="#fff" stroke-width=".48355"/><path d="m73.843 101.64-4.9773 4.4245c-0.0019 0.0689-2.0123-0.86635-2.0123-2.9458 0-2.0794 1.6857-3.7652 3.7652-3.7652s2.9728 1.6711 3.2245 2.2865z" stroke-width=".48355"/></g><circle cx="80.792" cy="91.148" r="1.0196" fill="#fff" fill-rule="evenodd"/></g></g><g transform="matrix(-.87929 .21896 .21926 .87959 61.148 31.766)" stroke-width="1.1034"/></g><path d="m134.43 112.7c0.0385 2.8172 1.7134 5.0784 3.7416 5.0506 0.0794-6.3e-4 -0.0488 8e-3 0.0234 4.5e-4 0.33993 0.27536 1.1158 0.44286 1.8366 0.43807l-0.60429-1.0832c0.18368-0.29814 0.28783-0.68765 0.34245-1.146l1.7061-0.78177-1.7013-0.48799c-1e-3 -0.2061 6e-3 -0.4062 0-0.62425l1.8176-0.8443-1.8176-0.54639c-5.7e-4 -0.0807-5e-3 -0.15801-6e-3 -0.23931-3e-3 -0.15262-3e-3 -0.30193-2e-3 -0.45009l1.5615-0.71547-1.5607-0.46926c7e-3 -0.25199 7e-3 -0.8379 7e-3 -0.82112l1.6208-0.76086-1.6208-0.51639c-0.20593-0.72015-0.82842-1.1667-1.741-1.1541-2.0282 0.028-3.6415 2.3342-3.6033 5.1514z" stroke-linecap="square" stroke-linejoin="round" stroke-width=".5"/><path d="m134.44 152.76c0.0385-2.8172 1.7134-5.0784 3.7416-5.0506 0.0794 6.3e-4 0.15401 8e-3 0.22623 0.0157l1.5679-0.85996-0.53838 1.4889c0.18368 0.29814 0.28783 0.68765 0.34245 1.146l1.7061 0.78177-1.7073 0.4834v0.67474l1.8236 0.7984-1.8176 0.54639-8e-3 0.6894 1.5615 0.71547-1.5595 0.47844v0.8303l1.6268 0.7425-1.6268 0.50499c-0.20593 0.72015-0.82242 1.1781-1.735 1.1655-2.0282-0.028-3.6415-2.3342-3.6033-5.1514z" stroke-linecap="square" stroke-linejoin="round" stroke-width=".5"/></g></svg>