<svg version="1.2" xmlns="http://www.w3.org/2000/svg" viewBox="0 0 32 51" width="32" height="51">
	<title>cat-8619611-svg</title>
	<style>
		.s0 { fill: #000000 } 
		.s1 { fill: #ffffff } 
	</style>
	<g id="Layer">
		<g id="Layer">
			<g id="Layer">
				<g id="Layer">
				</g>
			</g>
			<g id="Layer">
				<g id="Layer">
					<path id="Layer" class="s0" d="m23.4 32.3c-1.4 1.6-3.8 1.7-5.5 0.3-1.6-1.5-1.7-3.9-0.3-5.5 1.4-1.6 3.9-1.8 5.5-0.3 1.6 1.4 1.8 3.8 0.3 5.5z"/>
				</g>
				<path id="Layer" fill-rule="evenodd" class="s1" d="m19.2 28.4c-0.3 0.3-0.9 0.4-1.2 0.1-0.4-0.4-0.4-0.9-0.1-1.3 0.3-0.3 0.9-0.4 1.2 0 0.4 0.3 0.4 0.8 0.1 1.2z"/>
				<g id="Layer">
					<g id="Layer">
						<path id="Layer" class="s0" d="m29.9 16.9v6.8c0 0.1-2.1 1-3.7-0.4-1.6-1.5-1.7-3.9-0.3-5.5 1.4-1.6 3.3-1.2 4-0.9z"/>
					</g>
					<path id="Layer" fill-rule="evenodd" class="s1" d="m27.5 19.2c-0.3 0.4-0.9 0.4-1.2 0.1-0.4-0.3-0.4-0.9-0.1-1.2 0.3-0.4 0.9-0.4 1.2-0.1 0.4 0.3 0.4 0.9 0.1 1.2z"/>
				</g>
			</g>
			<g id="Layer">
			</g>
		</g>
	</g>
</svg>