<svg version="1.2" xmlns="http://www.w3.org/2000/svg" viewBox="0 0 32 51" width="32" height="51">
	<title>cat-8619611-svg</title>
	<style>
		.s0 { fill: #000000 } 
		.s1 { fill: #ffffff } 
		.s2 { fill: #000000;stroke: #000000;stroke-linecap: round;stroke-linejoin: round;stroke-width: .5 } 
	</style>
	<g id="Layer">
		<path id="Layer" class="s0" d="m22.3 1.4l-0.3 11.3c-3.3 1.6-8.1 5.2-10.9 13.1l-11.1 0.9c6.4 2.6 9.5 5.6 13.5 10.6 5.1 6.7 14.5 3.9 16.4 2.3v-29c-4.8-1-5.5-5.1-7.6-9.4z"/>
		<g id="Layer">
			<path id="Layer" class="s1" d="m25.7 28.7c-0.4-2.1 0.8-3.2 2.9-3.4 0.2 0.1 0.5 0.2 0.4 0.6-1.5 1.1-0.4 1.7 0.5 2.6q0.1 0.5-0.5 0.6c-0.9-0.8-1.6-1.7-2.6 0-0.2 0.1-0.4 0-0.7-0.4z"/>
			<g id="Layer">
				<g id="Layer">
					<path id="Layer" fill-rule="evenodd" class="s2" d="m17.8 34.7l-2.1 5.6"/>
					<path id="Layer" fill-rule="evenodd" class="s2" d="m17.5 34.5l-5.2 2.9"/>
					<path id="Layer" fill-rule="evenodd" class="s2" d="m17.8 34.7l-4.1 4.4"/>
				</g>
			</g>
			<g id="Layer">
				<g id="Layer">
					<path id="Layer" class="s1" d="m16.5 25.9c-1.9 2.2-1.8 5.3 0.2 7 2 1.8 5.1 1.5 6.9-0.6 1.9-2.1 1.8-5.2-0.2-7-1.9-1.7-5-1.5-6.9 0.6z"/>
				</g>
				<path id="Layer" fill-rule="evenodd" class="s1" d="m19.2 28.4c-0.3 0.3-0.9 0.4-1.2 0.1-0.4-0.4-0.4-0.9-0.1-1.3 0.3-0.3 0.9-0.4 1.2 0 0.4 0.3 0.4 0.8 0.1 1.2z"/>
				<g id="Layer">
					<g id="Layer">
						<path id="Layer" class="s1" d="m29.9 15c-1.8-0.5-3.8 0.1-5.1 1.6-1.9 2.1-1.8 5.3 0.2 7 1.3 1.2 3.2 1.5 4.9 0.9z"/>
					</g>
					<path id="Layer" fill-rule="evenodd" class="s1" d="m27.5 19.2c-0.3 0.4-0.9 0.4-1.2 0.1-0.4-0.3-0.4-0.9-0.1-1.2 0.3-0.4 0.9-0.4 1.2-0.1 0.4 0.3 0.4 0.9 0.1 1.2z"/>
				</g>
			</g>
			<g id="Layer">
			</g>
		</g>
		<path id="Layer" class="s0" d="m24.5 5.2c0.1 2.8 1.7 5 3.8 5 0 0-0.1 0 0 0 0.3 0.3 1.1 0.4 1.8 0.4l-0.6-1q0.3-0.5 0.4-1.2l1.7-0.8-1.7-0.5q0-0.3 0-0.6l1.8-0.8-1.8-0.6q0-0.1 0-0.2 0-0.2 0-0.5l1.5-0.7-1.5-0.4c0-0.3 0-0.9 0-0.9l1.6-0.7-1.6-0.5c-0.2-0.8-0.9-1.2-1.8-1.2-2 0-3.6 2.3-3.6 5.2z"/>
		<path id="Layer" class="s0" d="m24.5 45.2c0.1-2.8 1.7-5.1 3.8-5q0.1 0 0.2 0l1.6-0.9-0.6 1.5q0.3 0.5 0.4 1.2l1.7 0.7-1.7 0.5v0.7l1.8 0.8-1.8 0.5v0.7l1.5 0.7-1.5 0.5v0.8l1.6 0.8-1.6 0.5c-0.2 0.7-0.9 1.2-1.8 1.2-2-0.1-3.6-2.4-3.6-5.2z"/>
	</g>
</svg>